<?xml version="1.0" encoding="UTF-8"?>
<svg version="1.1" viewBox="0 0 2048 734" width="834" height="299" xmlns="http://www.w3.org/2000/svg">
<path transform="translate(1046,51)" d="m0 0h30l31 2 21 3 30 7 24 8 18 8 13 7 12 8 14 11 11 10 11 14 9 14 9 19 7 26 1 10v26l-2 14-6 23-12 25-11 15-9 10-9 9 14 2h17l10 5 3 9-2 8-5 5-6 7-13 8-10 6-21 8-22 7-30 6-44 4h-37l-33-3-14-2-30-7-13-5-8-1-25 8-30 6-41 4h-36l-44-4-34-7-26-9-16-7-17-11-10-9-5-7v-10l5-5 4-3 5-1h16l14-1-7-8-8-8-10-13-8-14-4-8-7-18-5-26-1-10v-12l2-15 5-22 8-19 8-14 9-12 11-12 7-7 13-10 17-11 17-8 14-6 19-6 39-8 26-2h14l5 2 5 8v6l-5 8-9 3-38 4-19 4-22 6-18 7-16 8-11 7-10 8-10 9-10 11-8 13-7 14-6 21-1 11v19l2 14 6 20 8 16 8 12 14 15 14 9 11 7 4 5 1 2v7l-3 5-5 4-11 5-16 5 12 5 13 4 20 5 39 5 13 1h37l27-3 26-4 6-2-11-7-15-12-4-5-7-6-13-17-9-16-7-16-3-9-6-29-1-11v-21l2-20 7-32 9-22 6-11 10-14 9-10 10-10 6-4 8-6 14-8 10-5 16-6 21-6 11-2zm-4 27v3l6 4 11 9 13 13 12 17 8 16 6 14 6 24 2 16v49l-2 14-7 25-10 21-8 12-11 14-11 11-16 12-8 5v2l17 4 32 4 13 1h34l29-3 23-3 28-7 18-7-2-2-21-7-9-5-3-6v-7l3-6 20-12 8-6 14-16 7-11 8-16 6-21 1-11v-23l-2-16-7-19-9-16-7-9-12-13-11-9-9-6-12-7-15-7-20-7-28-7-26-3-26-2zm-51 90-5 3-3 6-1 25-21 1-6 3-4 6v8l4 7 7 3 20 1v10l2 11 5 5 3 1h8l6-4 3-6 1-5v-13h19l8-3 4-6 1-6-3-7-5-4-3-1h-21v-20l-3-9-4-5-2-1z" fill="#FEFEFE"/>
<path transform="translate(888,480)" d="m0 0h86l10 3 8 5 5 4 4 8 3 14-1 13-6 16h-2l-2 4-5 5-3 4 5 4 7 8 8 11 6 14 2 8v14l-4 13-6 11-12 12-13 6-4 1-16 1h-52l-18-1-5-3-5-7v-156l5-8zm23 28v24l1 1 30 4 14 5 4-1 9-9 1-2 1-11-3-6-7-4-4-1zm0 50v71h48l10-4 6-5 2-4 1-10-2-12-5-9-5-5-10-8-15-7-21-6z" fill="#FEFEFE"/>
<path transform="translate(1592,480)" d="m0 0h22l30 5 15 5 16 8 13 9 13 13 10 15 7 15 4 17 2 15-1 16-5 19-7 13-11 13-11 8-15 6-5 1-20 1h-50l-13-1-4-2-4-5-2-11v-143l4-10 5-4zm18 32v116h36l15-3 11-4 10-10 3-7 2-12-1-16-3-15-9-17-11-12-11-9-17-8-16-3z" fill="#FEFEFE"/>
<path transform="translate(1111,478)" d="m0 0h17l14 3 16 6 11 7 10 8 8 10 7 11 6 15 3 19 1 16-2 17-3 14-7 16-9 12-5 6-13 10-14 7-9 3-14 2h-19l-17-3-16-7-12-9-8-8-8-11-6-11-6-19-1-5-1-22 1-14 5-16 5-13 7-11 11-12 12-9 10-5 14-5zm1 30-11 4-8 4-5 5-8 11-7 18-2 14v13l3 15 5 14 8 10 5 6 12 7 4 1h22l9-4 9-6 9-11 7-14 2-11v-28l-2-11-8-16-8-10-9-6-9-4-4-1z" fill="#FEFEFE"/>
<path transform="translate(716,480)" d="m0 0h21l20 3 21 5 16 7 12 8 9 7 8 8 10 14 7 14 6 18 1 5v31l-4 13-5 12-7 10-6 7-11 8-14 6-8 2-36 1h-28l-18-1-6-4-3-8v-152l4-8 8-5zm17 32v116h37l15-3 9-3 10-8 6-13 1-15-1-13-6-18-10-16-9-9-13-9-13-6-16-3z" fill="#FEFEFE"/>
<path transform="translate(1424,480)" d="m0 0h73l16 3 11 4 8 6 6 11 1 4v18l-5 12-6 9-10 10 1 4 7 8 7 10 8 16 6 16 2 15v21l-3 8-3 3-4 1h-12l-5-3-4-7-3-26-6-21-8-14-6-7-9-7-14-7-16-3-10-1v82l-3 8-5 5-3 1h-13l-5-3-4-6-1-5v-151l3-7 6-6zm22 30v25l18 1 14 3 9 3 6-1 10-9 3-8-1-8-4-4-6-2z" fill="#FEFEFE"/>
<path transform="translate(1299,478)" d="m0 0h10l8 4 7 6 7 10 7 11 16 32 10 22 9 25 7 23 4 23v11l-4 10-6 4h-13l-7-6-3-9-4-14-6-14-5-7-5-4-5-5-5-4-17-8-22-4-12-1-4 16-6 25-3 26-6 8-4 1h-12l-5-2-5-8-1-5v-10l6-33 11-33 5-13 11-24 8-16 9-16 10-13 11-7zm3 33-11 19-5 9-6 12-1 6 18 2 13 4 16 7 6 4 2-1-7-18-8-18-12-23-2-3z" fill="#FEFEFE"/>
<path transform="translate(413,480)" d="m0 0h93l8 4 3 5 1 9-4 8-6 3-7 1h-64v22h65l7 2 5 5 1 2v12l-6 7-6 2h-66v67h59l14 1 5 5 2 3 1 9-4 8-4 3h-96l-8-7-3-7-1-19v-89l1-44 4-7z" fill="#FEFEFE"/>
<path transform="translate(562,480)" d="m0 0h94l6 3 5 6v11l-3 5-4 3-10 2h-63l-1 22h66l8 3 5 8v8l-5 8-7 3h-66v46l-1 21h60l13 1 6 5 2 4v11l-6 7-2 1h-95l-5-3-5-6-2-5v-152l4-7z" fill="#FEFEFE"/>
<path transform="translate(278,480)" d="m0 0h88l6 3 5 6 1 8-3 7-5 4-9 2h-59v22h60l8 3 4 6 1 9-4 8-8 4h-61v84l-4 10-7 3h-13l-5-3-3-4-2-9v-148l3-9z" fill="#FEFEFE"/>
</svg>
